<svg width="569" height="277" viewBox="0 0 569 277" fill="none" xmlns="http://www.w3.org/2000/svg">
<path d="M44.5 255.5L78.5 264.5V238.5L111.5 220.5C113.1 228.5 117.833 236.833 120 240L96.5 257.5V276H75.5C61.5 270 47.5 261 44.5 255.5Z" fill="#353AA1"/>
<path d="M138.5 276H156L146 267L138.5 276Z" fill="#353AA1"/>
<path d="M141 262.5C141.4 262.1 129.833 251 124 245.5C116.833 251 102.4 262 102 262C101.6 262 101.8 271.167 101.967 276H128.967C132.8 271.5 140.6 262.9 141 262.5Z" fill="#353AA1"/>
<path d="M14.5 143.5H1C1 155 1.5 162.5 3 174.5L20.5 173.5L39 190L54 169L96 161C95.5 156 94 152.5 94.5 142H54L35.5 164L14.5 143.5Z" fill="#353AA1"/>
<path d="M156 0H136.5L146 10.5L151.5 4L156 0Z" fill="#353AA1"/>
<path d="M141.5 14.5L130.5 1H77.5C76.5 4 76.8307 11.1874 77.5 14L103.5 11.5L124.5 31.5L133 22.5L141.5 14.5Z" fill="#353AA1"/>
<path d="M18 102.5L1.5 100.5C1.19209e-07 113 0.5 127 1 133.5H17.5L34.5 152.5L50.5 135H95C94 129.5 94.1667 119 95 116L53.5 109.5L33 127L18 102.5Z" fill="#353AA1"/>
<path d="M53 20.5L49.5 17L58.5 11L68.5 6.5L70.5 22L97.5 18.5L119.5 40C114 44 109.4 56.1 109 56.5C108.6 56.9 88.5 43 78.5 36L56 46.5L53 20.5Z" fill="#353AA1"/>
<path d="M46 30L40.5 25.5C25 39 21 49 21 50.5C24.5 52 31.6 55.1 32 55.5C32.4 55.9 40.1667 71.3333 44 79L66 67L101.5 82.5C103 71.5 108.5 63.9 108.5 63.5C108.5 63.1 86.8333 52 76 46.5L49.5 55.5L46 30Z" fill="#353AA1"/>
<path d="M27.5 62.5L18 60.5C9.5 65.5 5 91.5 5 92.5C5 93.3 15.6667 93.5 21 93.5C25.8333 100.833 35.7 115.5 36.5 115.5C37.3 115.5 49.5 105.5 55.5 100.5L97.5 108.5L98.5 98.5L100.5 90L63 75.5L39.5 90L27.5 62.5Z" fill="#353AA1"/>
<path d="M20 183C19.8333 183 16.3 183.3 5.5 186.5C8 200 13.3333 208.833 17 215L30 210.5L52.5 224L60.5 200L100.5 188C98.5 182.8 97.8333 173.833 97.5 170C84.8333 172.167 59 174.6 59 175C59 175.4 47.6667 191.833 42 200L20 183Z" fill="#353AA1"/>
<path d="M73.5 231L108.5 212.5L105.5 204.5L103 195.5L65.5 209L57 235.5L30.5 220.5C26.6667 223 21.3448 226.131 21.5 226.5C25.5 236 33 245.5 39 249C43.5 248.5 47 247.5 47 247.5C47 247.5 63.5 252.167 71.5 255L73.5 231Z" fill="#353AA1"/>
<path d="M262.5 50.0001L422 65.5001H254.5C252.1 58.3002 239.5 43.5001 233.5 37C227.167 29.6667 216.032 19.5 200.5 19.5C187.5 19.5 181.5 24 178 26.5C160 39.4999 149 61 145.5 69.5C141.342 79.5976 133.5 117.5 133.5 134.5C133.5 165.5 135 176 145.5 205.5C156.647 236.817 181 251 184 253C185.5 254 200 261.5 218.5 252C226.833 246.5 246.5 231.2 254.5 210C280.333 209.667 332.3 211.7 333.5 212.5C334.7 213.3 285 224.5 260 230L245.5 251L316 237C292.334 245 244.5 261 242.5 261C240.5 261 218.833 269 215 272C206.5 275.5 188 282 163.5 267.5C140.952 254.155 121.858 220 114.5 190C108 163.5 107.252 127.876 112 101.5C121 51.5 137.5 32 149 21.5C163.382 8.36905 182.211 1.00004 196 1C208.5 0.999965 222 4.99997 235.5 10C237 10.5557 295.667 23.1668 324.5 30.0001L243.5 25.0001C249.1 29.0001 258.5 43.3335 262.5 50.0001Z" fill="#288440"/>
<path d="M235.609 94.5469C235.609 98.3281 234.672 101.234 232.797 103.266C230.922 105.297 228.234 106.312 224.734 106.312C221.234 106.312 218.547 105.297 216.672 103.266C214.797 101.234 213.859 98.3177 213.859 94.5156C213.859 90.7135 214.797 87.8125 216.672 85.8125C218.557 83.8021 221.255 82.7969 224.766 82.7969C228.276 82.7969 230.958 83.8073 232.812 85.8281C234.677 87.849 235.609 90.7552 235.609 94.5469ZM218.938 94.5469C218.938 97.099 219.422 99.0208 220.391 100.312C221.359 101.604 222.807 102.25 224.734 102.25C228.599 102.25 230.531 99.6823 230.531 94.5469C230.531 89.401 228.609 86.8281 224.766 86.8281C222.839 86.8281 221.385 87.4792 220.406 88.7812C219.427 90.0729 218.938 91.9948 218.938 94.5469ZM256.388 93.9062H257.981C259.471 93.9062 260.585 93.6146 261.325 93.0312C262.065 92.4375 262.434 91.5781 262.434 90.4531C262.434 89.3177 262.122 88.4792 261.497 87.9375C260.882 87.3958 259.914 87.125 258.591 87.125H256.388V93.9062ZM267.325 90.2812C267.325 92.7396 266.554 94.6198 265.013 95.9219C263.481 97.224 261.299 97.875 258.466 97.875H256.388V106H251.544V83.1562H258.841C261.611 83.1562 263.716 83.7552 265.153 84.9531C266.601 86.1406 267.325 87.9167 267.325 90.2812ZM295.994 106H282.838V83.1562H295.994V87.125H287.681V92.1406H295.416V96.1094H287.681V102H295.994V106ZM332.241 106H326.084L316.147 88.7188H316.006C316.204 91.7708 316.303 93.9479 316.303 95.25V106H311.975V83.1562H318.084L328.006 100.266H328.116C327.959 97.2969 327.881 95.1979 327.881 93.9688V83.1562H332.241V106Z" fill="#288440"/>
<path d="M228.859 156L227.203 150.562H218.875L217.219 156H212L220.062 133.062H225.984L234.078 156H228.859ZM226.047 146.5C224.516 141.573 223.651 138.786 223.453 138.141C223.266 137.495 223.13 136.984 223.047 136.609C222.703 137.943 221.719 141.24 220.094 146.5H226.047ZM266.443 133.156V147.938C266.443 149.625 266.062 151.104 265.302 152.375C264.552 153.646 263.463 154.62 262.036 155.297C260.609 155.974 258.922 156.312 256.974 156.312C254.036 156.312 251.755 155.562 250.13 154.062C248.505 152.552 247.693 150.49 247.693 147.875V133.156H252.521V147.141C252.521 148.901 252.875 150.193 253.583 151.016C254.291 151.839 255.463 152.25 257.099 152.25C258.682 152.25 259.828 151.839 260.536 151.016C261.255 150.182 261.614 148.88 261.614 147.109V133.156H266.443ZM291.729 156H286.885V137.188H280.682V133.156H297.932V137.188H291.729V156ZM333.062 144.547C333.062 148.328 332.124 151.234 330.249 153.266C328.374 155.297 325.687 156.312 322.187 156.312C318.687 156.312 315.999 155.297 314.124 153.266C312.249 151.234 311.312 148.318 311.312 144.516C311.312 140.714 312.249 137.812 314.124 135.812C316.01 133.802 318.708 132.797 322.218 132.797C325.729 132.797 328.411 133.807 330.265 135.828C332.13 137.849 333.062 140.755 333.062 144.547ZM316.39 144.547C316.39 147.099 316.874 149.021 317.843 150.312C318.812 151.604 320.26 152.25 322.187 152.25C326.051 152.25 327.984 149.682 327.984 144.547C327.984 139.401 326.062 136.828 322.218 136.828C320.291 136.828 318.838 137.479 317.859 138.781C316.88 140.073 316.39 141.995 316.39 144.547ZM358.348 156L352.848 138.078H352.708C352.905 141.724 353.004 144.156 353.004 145.375V156H348.676V133.156H355.27L360.676 150.625H360.77L366.504 133.156H373.098V156H368.583V145.188C368.583 144.677 368.588 144.089 368.598 143.422C368.619 142.755 368.692 140.984 368.817 138.109H368.676L362.786 156H358.348ZM410.478 144.547C410.478 148.328 409.541 151.234 407.666 153.266C405.791 155.297 403.103 156.312 399.603 156.312C396.103 156.312 393.416 155.297 391.541 153.266C389.666 151.234 388.728 148.318 388.728 144.516C388.728 140.714 389.666 137.812 391.541 135.812C393.426 133.802 396.124 132.797 399.634 132.797C403.145 132.797 405.827 133.807 407.681 135.828C409.546 137.849 410.478 140.755 410.478 144.547ZM393.806 144.547C393.806 147.099 394.291 149.021 395.259 150.312C396.228 151.604 397.676 152.25 399.603 152.25C403.468 152.25 405.4 149.682 405.4 144.547C405.4 139.401 403.478 136.828 399.634 136.828C397.707 136.828 396.254 137.479 395.275 138.781C394.296 140.073 393.806 141.995 393.806 144.547ZM434.905 156H430.061V137.188H423.858V133.156H441.108V137.188H434.905V156ZM455.504 156V133.156H460.348V156H455.504ZM490.009 133.156H494.899L487.134 156H481.853L474.103 133.156H478.993L483.29 146.75C483.53 147.552 483.774 148.49 484.024 149.562C484.285 150.625 484.446 151.365 484.509 151.781C484.623 150.823 485.014 149.146 485.681 146.75L490.009 133.156ZM521.826 156H508.67V133.156H521.826V137.125H513.514V142.141H521.248V146.109H513.514V152H521.826V156Z" fill="#288440"/>
<path d="M228.359 190.656C228.359 192.719 227.615 194.344 226.125 195.531C224.646 196.719 222.583 197.312 219.938 197.312C217.5 197.312 215.344 196.854 213.469 195.938V191.438C215.01 192.125 216.312 192.609 217.375 192.891C218.448 193.172 219.427 193.312 220.312 193.312C221.375 193.312 222.188 193.109 222.75 192.703C223.323 192.297 223.609 191.693 223.609 190.891C223.609 190.443 223.484 190.047 223.234 189.703C222.984 189.349 222.615 189.01 222.125 188.688C221.646 188.365 220.661 187.849 219.172 187.141C217.776 186.484 216.729 185.854 216.031 185.25C215.333 184.646 214.776 183.943 214.359 183.141C213.943 182.339 213.734 181.401 213.734 180.328C213.734 178.307 214.417 176.719 215.781 175.562C217.156 174.406 219.052 173.828 221.469 173.828C222.656 173.828 223.786 173.969 224.859 174.25C225.943 174.531 227.073 174.927 228.25 175.438L226.688 179.203C225.469 178.703 224.458 178.354 223.656 178.156C222.865 177.958 222.083 177.859 221.312 177.859C220.396 177.859 219.693 178.073 219.203 178.5C218.714 178.927 218.469 179.484 218.469 180.172C218.469 180.599 218.568 180.974 218.766 181.297C218.964 181.609 219.276 181.917 219.703 182.219C220.141 182.51 221.167 183.042 222.781 183.812C224.917 184.833 226.38 185.859 227.172 186.891C227.964 187.911 228.359 189.167 228.359 190.656ZM249.14 197V174.156H253.984V197H249.14ZM286.046 197L280.546 179.078H280.405C280.603 182.724 280.702 185.156 280.702 186.375V197H276.374V174.156H282.967L288.374 191.625H288.467L294.202 174.156H300.796V197H296.28V186.188C296.28 185.677 296.285 185.089 296.296 184.422C296.316 183.755 296.389 181.984 296.514 179.109H296.374L290.483 197H286.046ZM341.795 174.156V188.938C341.795 190.625 341.415 192.104 340.654 193.375C339.904 194.646 338.816 195.62 337.389 196.297C335.962 196.974 334.274 197.312 332.326 197.312C329.389 197.312 327.107 196.562 325.482 195.062C323.857 193.552 323.045 191.49 323.045 188.875V174.156H327.873V188.141C327.873 189.901 328.227 191.193 328.936 192.016C329.644 192.839 330.816 193.25 332.451 193.25C334.035 193.25 335.18 192.839 335.889 192.016C336.607 191.182 336.967 189.88 336.967 188.109V174.156H341.795ZM364.029 197V174.156H368.872V193H378.138V197H364.029ZM412.747 197L411.091 191.562H402.762L401.106 197H395.887L403.95 174.062H409.872L417.966 197H412.747ZM409.934 187.5C408.403 182.573 407.539 179.786 407.341 179.141C407.153 178.495 407.018 177.984 406.934 177.609C406.591 178.943 405.606 182.24 403.981 187.5H409.934ZM446.309 197H441.465V178.188H435.262V174.156H452.512V178.188H446.309V197ZM493.402 185.547C493.402 189.328 492.464 192.234 490.589 194.266C488.714 196.297 486.027 197.312 482.527 197.312C479.027 197.312 476.339 196.297 474.464 194.266C472.589 192.234 471.652 189.318 471.652 185.516C471.652 181.714 472.589 178.812 474.464 176.812C476.35 174.802 479.048 173.797 482.558 173.797C486.069 173.797 488.751 174.807 490.605 176.828C492.47 178.849 493.402 181.755 493.402 185.547ZM476.73 185.547C476.73 188.099 477.214 190.021 478.183 191.312C479.152 192.604 480.6 193.25 482.527 193.25C486.391 193.25 488.324 190.682 488.324 185.547C488.324 180.401 486.402 177.828 482.558 177.828C480.631 177.828 479.178 178.479 478.199 179.781C477.22 181.073 476.73 182.995 476.73 185.547ZM519.62 184.297H521.182C522.714 184.297 523.844 184.042 524.573 183.531C525.302 183.021 525.667 182.219 525.667 181.125C525.667 180.042 525.292 179.271 524.542 178.812C523.802 178.354 522.651 178.125 521.089 178.125H519.62V184.297ZM519.62 188.234V197H514.776V174.156H521.432C524.537 174.156 526.834 174.724 528.323 175.859C529.813 176.984 530.557 178.698 530.557 181C530.557 182.344 530.188 183.542 529.448 184.594C528.709 185.635 527.662 186.453 526.307 187.047C529.745 192.182 531.985 195.5 533.026 197H527.651L522.198 188.234H519.62Z" fill="#1E1E1E"/>
</svg>
